<?xml version="1.0" encoding="utf-8"?>
<!-- Generator: Adobe Illustrator 18.1.0, SVG Export Plug-In . SVG Version: 6.00 Build 0)  -->
<!DOCTYPE svg PUBLIC "-//W3C//DTD SVG 1.1//EN" "http://www.w3.org/Graphics/SVG/1.1/DTD/svg11.dtd">
<svg version="1.1" id="Layer_1" xmlns="http://www.w3.org/2000/svg" xmlns:xlink="http://www.w3.org/1999/xlink" x="0px" y="0px"
	 viewBox="0 0 716.4 527.6" enable-background="new 0 0 716.4 527.6" xml:space="preserve">
<ellipse opacity="0.2" fill="#B4BFC2" cx="362.2" cy="511.6" rx="173.4" ry="9.5"/>
<path fill="#FFFFFF" stroke="#B4BFC2" stroke-width="3" stroke-miterlimit="10" d="M424.4,511.6H299.9c-2.4,0-4.3-1.9-4.3-4.3v-3.1
	c0-2.4,1.9-4.3,4.3-4.3h124.5c2.4,0,4.3,1.9,4.3,4.3v3.1C428.7,509.6,426.8,511.6,424.4,511.6z"/>
<path fill="#FFFFFF" stroke="#B4BFC2" stroke-width="3" stroke-miterlimit="10" d="M549.8,466.5h-376c-5.2,0-9.4-4.2-9.4-9.4V224.3
	c0-5.2,4.2-9.4,9.4-9.4h376c5.2,0,9.4,4.2,9.4,9.4v232.8C559.2,462.3,555,466.5,549.8,466.5z"/>
<path fill="#FFFFFF" stroke="#B4BFC2" stroke-width="3" stroke-miterlimit="10" d="M410.1,475.1c0-2.8,0.2-5.5,0.6-8.2h-97.2
	c0.4,2.6,0.6,5.4,0.6,8.2c0,9.1-2.3,17.6-6.4,24.7h9.5H407h9.5C412.5,492.8,410.1,484.3,410.1,475.1z"/>
<rect x="176.8" y="225.9" fill="#FFFFFF" stroke="#B4BFC2" stroke-width="3" stroke-miterlimit="10" width="370.1" height="214.9"/>
<path opacity="0.4" fill="#B4BFC2" d="M411.9,467.9h-91.5h-3.9h-1.3l0,0.2c0.4,2.8,0.6,5.6,0.6,8.4c0,1,0,2-0.1,3h1.2h1.2h92.9
	c-0.1-1-0.1-2-0.1-3c0-2.8,0.2-5.6,0.6-8.4L411.9,467.9z"/>
<g>
	<g>
		
			<ellipse fill="none" stroke="#E8EAEA" stroke-width="3" stroke-linecap="round" stroke-linejoin="round" stroke-miterlimit="10" cx="69.5" cy="424.6" rx="11.9" ry="14.3"/>
		<path fill="none" stroke="#E8EAEA" stroke-width="3" stroke-linecap="round" stroke-linejoin="round" stroke-miterlimit="10" d="
			M75.9,444l1.1,2.9l12,3.9c0,0,3.5,0.8,3.5,11.4H46.4c0-10.5,3.5-11.4,3.5-11.4l12-3.9l1.2-3.1"/>
	</g>
	<path fill="none" stroke="#E8EAEA" stroke-width="3" stroke-linecap="round" stroke-linejoin="round" stroke-miterlimit="10" d="
		M57.9,418.2c0,0,6,4.7,13.1,1.5c7.1-3.2,0.1,5.7,10.2-0.3"/>
</g>
<g>
	<g>
		<path fill="#4E8DCB" d="M315.2,352.4c0-3.3,1.6-6.2,4.1-8.1c0.4-0.3,0.9-0.5,1.3-0.8c12.6-7.7,27-11.5,41.3-11.5
			c14.3,0,28.6,3.8,41.3,11.5c0.4,0.3,0.9,0.5,1.3,0.8c2.5,1.8,4.1,4.7,4.1,8.1c0,5.6-4.5,10.1-10.1,10.1c-2.1,0-4.1-0.7-5.7-1.7
			c-6.5-3.9-13.6-6.5-20.8-7.7v23.3c0,5.6-4.5,10.1-10.1,10.1c-5.6,0-10.1-4.5-10.1-10.1V353c-7.3,1.2-14.3,3.8-20.8,7.7
			c-1.6,1.1-3.6,1.7-5.7,1.7C319.7,362.5,315.2,358,315.2,352.4z"/>
		<g>
			<path fill="#4E8DCB" d="M319.3,322.3c0.4,0.3,0.9,0.5,1.3,0.8c4.5,2.7,9.2,4.9,14,6.7c8.8-3.2,18-4.8,27.3-4.8
				c9.2,0,18.5,1.6,27.3,4.8c4.8-1.8,9.5-4,14-6.7c0.4-0.3,0.9-0.5,1.3-0.8c2.5-1.8,4.1-4.7,4.1-8.1c0-5.6-4.5-10.1-10.1-10.1
				c-2.1,0-4.1,0.6-5.7,1.7c-6.5,3.9-13.6,6.5-20.8,7.7v-23.3c0-5.6-4.5-10.1-10.1-10.1c-5.5,0-10.1,4.5-10.1,10.1v23.3
				c-7.3-1.2-14.3-3.8-20.8-7.7c-1.6-1.1-3.6-1.7-5.7-1.7c-5.6,0-10.1,4.5-10.1,10.1C315.2,317.6,316.8,320.5,319.3,322.3z"/>
		</g>
	</g>
</g>
<g>
	<path fill="#E8EAEA" d="M119.5,168.6c-0.3,0-0.5,0.2-0.5,0.5v29c0,0.3,0.2,0.5,0.5,0.5s0.5-0.2,0.5-0.5v-29
		C120.1,168.8,119.8,168.6,119.5,168.6z"/>
	<path fill="#E8EAEA" d="M109.9,184.8c-0.3,0-0.5,0.2-0.5,0.5v12.9c0,0.3,0.2,0.5,0.5,0.5c0.3,0,0.5-0.2,0.5-0.5v-12.9
		C110.4,185,110.1,184.8,109.9,184.8z"/>
	<path fill="#E8EAEA" d="M100.1,178.4c-0.3,0-0.5,0.2-0.5,0.5v19.2c0,0.3,0.2,0.5,0.5,0.5s0.5-0.2,0.5-0.5V179
		C100.6,178.7,100.4,178.4,100.1,178.4z"/>
	<path fill="#E8EAEA" d="M90.3,183.8c-0.3,0-0.5,0.2-0.5,0.5v13.8c0,0.3,0.2,0.5,0.5,0.5s0.5-0.2,0.5-0.5v-13.8
		C90.8,184,90.6,183.8,90.3,183.8z"/>
	<path fill="#E8EAEA" d="M80.5,191.4c-0.3,0-0.5,0.2-0.5,0.5v6.2c0,0.3,0.2,0.5,0.5,0.5c0.3,0,0.5-0.2,0.5-0.5v-6.2
		C81,191.6,80.8,191.4,80.5,191.4z"/>
	<path fill="#E8EAEA" d="M70.7,187.8c-0.3,0-0.5,0.2-0.5,0.5v9.9c0,0.3,0.2,0.5,0.5,0.5c0.3,0,0.5-0.2,0.5-0.5v-9.9
		C71.2,188,71,187.8,70.7,187.8z"/>
	<path fill="#E8EAEA" d="M120.1,157c-2.1,0-3.8,1.7-3.8,3.8c0,0.8,0.2,1.5,0.7,2.1l-7.7,10.9c-0.3-0.1-0.6-0.1-1-0.1
		c-0.9,0-1.7,0.3-2.4,0.9l-5.9-3.4c0-0.2,0.1-0.4,0.1-0.6c0-2.1-1.7-3.8-3.8-3.8c-2.1,0-3.8,1.7-3.8,3.8c0,0.7,0.2,1.4,0.6,2
		l-8.4,10.8c-0.4-0.1-0.8-0.2-1.2-0.2c-0.9,0-1.7,0.3-2.4,0.9l-6-3.5c0-0.2,0.1-0.4,0.1-0.6c0-2.1-1.7-3.8-3.8-3.8
		c-2.1,0-3.8,1.7-3.8,3.8c0,0.7,0.2,1.4,0.6,2l-7.3,9.4c-0.4-0.1-0.7-0.2-1.1-0.2c-2.1,0-3.8,1.7-3.8,3.8s1.7,3.8,3.8,3.8
		c2.1,0,3.8-1.7,3.8-3.8c0-0.7-0.2-1.4-0.6-2l7.3-9.4c0.4,0.1,0.7,0.2,1.1,0.2c0.9,0,1.7-0.3,2.4-0.9l6,3.5c0,0.2-0.1,0.4-0.1,0.7
		c0,2.1,1.7,3.8,3.8,3.8c2.1,0,3.8-1.7,3.8-3.8c0-0.7-0.2-1.4-0.5-1.9l8.5-10.8c0.4,0.1,0.8,0.2,1.2,0.2c0.9,0,1.8-0.3,2.4-0.9
		l5.9,3.4c0,0.2-0.1,0.4-0.1,0.6c0,2.1,1.7,3.8,3.8,3.8c2.1,0,3.8-1.7,3.8-3.8c0-0.8-0.2-1.5-0.7-2.1l7.7-10.9
		c0.3,0.1,0.6,0.1,1,0.1c2.1,0,3.8-1.7,3.8-3.8S122.1,157,120.1,157z M59.7,196c-0.6,0-1.2-0.5-1.2-1.2c0-0.6,0.5-1.2,1.2-1.2
		c0.6,0,1.2,0.5,1.2,1.2C60.9,195.5,60.3,196,59.7,196z M71.3,181c-0.6,0-1.2-0.5-1.2-1.2c0-0.6,0.5-1.2,1.2-1.2
		c0.6,0,1.2,0.5,1.2,1.2C72.5,180.5,71.9,181,71.3,181z M83.4,188c-0.6,0-1.2-0.5-1.2-1.2c0-0.6,0.5-1.2,1.2-1.2
		c0.6,0,1.2,0.5,1.2,1.2C84.6,187.5,84.1,188,83.4,188z M96.3,171.7c-0.6,0-1.2-0.5-1.2-1.2c0-0.6,0.5-1.2,1.2-1.2s1.2,0.5,1.2,1.2
		C97.4,171.2,96.9,171.7,96.3,171.7z M108.3,178.6c-0.6,0-1.2-0.5-1.2-1.2c0-0.6,0.5-1.2,1.2-1.2s1.2,0.5,1.2,1.2
		C109.4,178.1,108.9,178.6,108.3,178.6z M120.1,162c-0.6,0-1.2-0.5-1.2-1.2c0-0.6,0.5-1.2,1.2-1.2s1.2,0.5,1.2,1.2
		C121.2,161.4,120.7,162,120.1,162z"/>
</g>
<g>
	<g>
		<path fill="none" stroke="#E8EAEA" stroke-width="3" stroke-linecap="round" stroke-linejoin="round" stroke-miterlimit="10" d="
			M681.2,446.6c2.2,3,3.6,6.6,3.8,10.5h18.6c-0.2-8.9-3.6-17.1-9-23.5"/>
		<path fill="none" stroke="#E8EAEA" stroke-width="3" stroke-linecap="round" stroke-linejoin="round" stroke-miterlimit="10" d="
			M686.5,426.3c-5.9-3.9-13-6.1-20.6-6.1c-20.6,0-37.3,16.5-37.8,36.9h18.6c0.5-10.2,8.9-18.3,19.2-18.3c2.9,0,5.6,0.6,8.1,1.8"/>
	</g>
	
		<line fill="none" stroke="#E8EAEA" stroke-width="3" stroke-linecap="round" stroke-linejoin="round" stroke-miterlimit="10" x1="667.9" y1="454.1" x2="691" y2="429.6"/>
	
		<circle fill="none" stroke="#E8EAEA" stroke-width="3" stroke-linecap="round" stroke-linejoin="round" stroke-miterlimit="10" cx="665.4" cy="456.7" r="3.1"/>
</g>
<g>
	<g>
		<path fill="none" stroke="#E8EAEA" stroke-width="3" stroke-linecap="round" stroke-linejoin="round" stroke-miterlimit="10" d="
			M361.3,68.5c-14.3,0-25.9,11.6-25.9,25.9c0,14.3,11.6,25.9,25.9,25.9c14.3,0,25.9-11.6,25.9-25.9h-25.9V68.5z"/>
	</g>
	<g>
		<path fill="none" stroke="#E8EAEA" stroke-width="3" stroke-linecap="round" stroke-linejoin="round" stroke-miterlimit="10" d="
			M369.7,67.3v18.6h18.6C388.3,75.6,380,67.3,369.7,67.3z"/>
	</g>
</g>
<g>
	<g>
		<path fill="#43609D" d="M238.5,80.2v14h-11.4c-0.6,0-1.3,0.4-1.9,1.3c-0.6,0.9-0.9,1.9-0.9,3.1v7.3h14.2v14.2h-14.2v34.5h-14.2
			v-34.5h-11.4v-14.2h11.4v-7c0-2.6,0.4-5,1.3-7.3c0.9-2.3,2.1-4.2,3.6-5.9c1.5-1.7,3.3-3,5.4-3.9c2.1-1,4.3-1.5,6.6-1.5H238.5
			 M238.5,77.2h-11.4c-2.8,0-5.4,0.6-7.9,1.7c-2.4,1.1-4.5,2.7-6.3,4.6c-1.8,1.9-3.2,4.2-4.2,6.8c-1,2.6-1.5,5.4-1.5,8.4v4h-8.4
			c-1.7,0-3,1.3-3,3v14.2c0,1.7,1.3,3,3,3h8.4v31.5c0,1.7,1.3,3,3,3h14.2c1.7,0,3-1.3,3-3v-31.5h11.2c1.7,0,3-1.3,3-3v-14.2
			c0-1.7-1.3-3-3-3h-11.2v-4.3c0-0.6,0.1-1,0.4-1.4c0,0,0,0,0,0h10.8c1.7,0,3-1.3,3-3v-14C241.5,78.6,240.2,77.2,238.5,77.2
			L238.5,77.2z"/>
	</g>
</g>
<g>
	<g>
		<path fill="#4E8DCB" d="M71.7,272.5c2.3,0,4.3,0.4,6.2,1.3c1.8,0.9,3.5,2,4.9,3.5c1.7-0.3,3.4-0.7,5-1.4c1.7-0.7,3.2-1.4,4.7-2.1
			c-1.3,3.5-3.6,6.3-6.7,8.3c1.6-0.2,3.1-0.5,4.5-0.9c1.4-0.4,2.8-0.9,4.2-1.5c-2,2.9-4.5,5.6-7.6,7.9v1.8c0,5-0.9,10.1-2.8,15.3
			s-4.7,9.8-8.3,14c-3.7,4.2-8.1,7.5-13.5,10.1c-5.3,2.6-11.5,3.9-18.4,3.9c-4.3,0-8.4-0.6-12.3-1.8c-3.9-1.2-7.6-2.9-11-5.1
			c0.6,0.1,1.2,0.1,1.8,0.1c0.6,0,1.2,0,1.9,0c7.2,0,13.5-2.1,18.8-6.4c-3.4-0.1-6.3-1.1-8.9-3.1c-2.6-2-4.3-4.5-5.2-7.5
			c1,0.3,1.9,0.4,2.8,0.4c0.8,0,1.4,0,2.1-0.1c0.6-0.1,1.3-0.2,2-0.4c-3.5-0.8-6.4-2.5-8.8-5.2c-2.3-2.7-3.5-5.9-3.5-9.6v-0.1
			c1,0.5,2.1,0.9,3.2,1.3c1.1,0.3,2.4,0.5,3.8,0.5c-2.2-1.3-3.9-3.1-5-5.3c-1.2-2.2-1.8-4.6-1.8-7.3c0-2.7,0.7-5.2,2-7.7
			c3.8,4.7,8.4,8.5,13.7,11.3c5.4,2.8,11.2,4.3,17.5,4.6c-0.3-1-0.4-2.1-0.4-3.3c0-2.1,0.4-4.1,1.2-6c0.8-1.9,1.9-3.5,3.3-4.9
			c1.4-1.4,3-2.5,4.8-3.3C67.7,272.9,69.6,272.5,71.7,272.5 M92.5,273.8L92.5,273.8 M71.7,269.5c-2.5,0-4.9,0.5-7.1,1.5
			c-2.1,0.9-4.1,2.3-5.7,3.9c-1.7,1.7-3,3.6-3.9,5.9c-0.9,2.2-1.4,4.6-1.4,7.1c-4.5-0.6-8.8-1.9-12.7-4c-5-2.6-9.3-6.1-12.8-10.5
			c-0.6-0.7-1.4-1.1-2.3-1.1c-0.1,0-0.2,0-0.3,0c-1,0.1-1.9,0.7-2.4,1.5c-1.6,2.9-2.4,5.9-2.4,9.1c0,2.9,0.6,5.6,1.8,8
			c-0.2,0.1-0.4,0.2-0.6,0.3c-0.9,0.5-1.4,1.5-1.4,2.6v0.1c0,4.4,1.4,8.3,4.2,11.6c0.5,0.6,1.1,1.2,1.7,1.8
			c-0.5,0.7-0.6,1.6-0.3,2.5c1.1,3.6,3.2,6.6,6.3,9c1,0.8,2,1.4,3.1,1.9c-3.4,1.5-7,2.2-11.1,2.2h-1.9c-0.4,0-0.9,0-1.3-0.1
			c-0.1,0-0.3,0-0.4,0c-1.2,0-2.4,0.8-2.8,2c-0.5,1.3,0,2.8,1.2,3.6c3.6,2.3,7.6,4.1,11.7,5.4c4.2,1.3,8.6,2,13.2,2
			c7.4,0,14-1.4,19.8-4.2c5.7-2.8,10.5-6.4,14.4-10.9c3.9-4.4,6.9-9.4,8.9-14.9c2-5.5,3-11,3-16.3v-0.3c2.8-2.3,5.1-4.9,7-7.7
			c0.8-1.1,0.7-2.6-0.2-3.6c-0.6-0.7-1.4-1.1-2.3-1.1c0,0,0,0,0,0c0.3-0.6,0.5-1.1,0.8-1.7c0.2-0.4,0.2-0.8,0.2-1.2c0-1.7-1.3-3-3-3
			c0,0,0,0,0,0c-0.1,0-0.1,0-0.2,0c-0.5,0-0.9,0.2-1.3,0.4c-1.3,0.7-2.8,1.4-4.3,2c-1,0.4-2,0.7-3,0.9c-1.4-1.2-2.9-2.2-4.5-2.9
			C77,270.1,74.5,269.5,71.7,269.5L71.7,269.5z"/>
	</g>
</g>
<g>
	<rect x="624.3" y="275.2" fill="none" stroke="#F15B29" stroke-width="3" stroke-miterlimit="10" width="85.7" height="59.7"/>
	<polyline fill="none" stroke="#F15B29" stroke-width="3" stroke-miterlimit="10" points="626,276.7 667.2,311.5 708.7,276.7 	"/>
	<line fill="none" stroke="#F15B29" stroke-width="3" stroke-miterlimit="10" x1="624.3" y1="327" x2="658.1" y2="304.6"/>
	<line fill="none" stroke="#F15B29" stroke-width="3" stroke-miterlimit="10" x1="710.1" y1="328.3" x2="676.3" y2="304.6"/>
</g>
<g>
	<path fill="none" stroke="#5BBF9B" stroke-width="3" stroke-linejoin="round" stroke-miterlimit="10" d="M510.6,78
		c-24.7,0-44.8,17-44.8,38.1c0,10.9,5.4,20.7,13.9,27.6v13.4l9.9-7.3c6.2,2.8,13.4,4.4,20.9,4.4c24.7,0,44.8-17,44.8-38.1
		S535.4,78,510.6,78z"/>
	<g>
		
			<circle fill="none" stroke="#5BBF9B" stroke-width="3" stroke-linejoin="round" stroke-miterlimit="10" cx="490" cy="117.4" r="6.2"/>
		
			<circle fill="none" stroke="#5BBF9B" stroke-width="3" stroke-linejoin="round" stroke-miterlimit="10" cx="510.6" cy="117.4" r="6.2"/>
		
			<circle fill="none" stroke="#5BBF9B" stroke-width="3" stroke-linejoin="round" stroke-miterlimit="10" cx="531.3" cy="117.4" r="6.2"/>
	</g>
</g>
<g>
	
		<rect x="610.9" y="170.9" fill="none" stroke="#E8EAEA" stroke-width="3" stroke-linecap="round" stroke-linejoin="round" stroke-miterlimit="10" width="12.8" height="31"/>
	
		<rect x="632.6" y="153.8" fill="none" stroke="#E8EAEA" stroke-width="3" stroke-linecap="round" stroke-linejoin="round" stroke-miterlimit="10" width="12.8" height="48.1"/>
	
		<rect x="654.2" y="182.6" fill="none" stroke="#E8EAEA" stroke-width="3" stroke-linecap="round" stroke-linejoin="round" stroke-miterlimit="10" width="12.8" height="19.3"/>
</g>
</svg>
