<?xml version="1.0" encoding="utf-8"?>
<!-- Generator: Adobe Illustrator 18.1.0, SVG Export Plug-In . SVG Version: 6.00 Build 0)  -->
<!DOCTYPE svg PUBLIC "-//W3C//DTD SVG 1.1//EN" "http://www.w3.org/Graphics/SVG/1.1/DTD/svg11.dtd">
<svg version="1.1" id="Layer_1" xmlns:sketch="http://www.bohemiancoding.com/sketch/ns"
	 xmlns="http://www.w3.org/2000/svg" xmlns:xlink="http://www.w3.org/1999/xlink" x="0px" y="0px" viewBox="-1061 3255.5 68.2 59.9"
	 enable-background="new -1061 3255.5 68.2 59.9" xml:space="preserve">
<rect x="-1061" y="3194.7" fill="none" width="145" height="131"/>
<title>engage-icon</title>
<desc>Created with Sketch.</desc>
<g>
	<g>
		<path fill="none" stroke="#4E8DCB" stroke-linecap="round" stroke-linejoin="round" stroke-miterlimit="10" d="M-1030.4,3256.7
			c-6.9,0-12.5,4.8-12.5,10.6c0,3,1.5,5.8,3.9,7.7v3.7l2.8-2.1c1.7,0.8,3.7,1.2,5.8,1.2c6.9,0,12.5-4.8,12.5-10.6
			S-1023.5,3256.7-1030.4,3256.7z"/>
		<path fill="none" stroke="#4E8DCB" stroke-linecap="round" stroke-linejoin="round" stroke-miterlimit="10" d="M-1015.4,3266.8
			c3.7,1.2,6.3,4.2,6.3,7.7c0,2.3-1.2,4.5-3,6v2.9l-2.1-1.6c-1.3,0.6-2.9,1-4.5,1c-2.9,0-5.6-1.1-7.3-2.9"/>
		<g>
			
				<circle fill="none" stroke="#4E8DCB" stroke-linecap="round" stroke-linejoin="round" stroke-miterlimit="10" cx="-1036.2" cy="3267.7" r="1.7"/>
			
				<circle fill="none" stroke="#4E8DCB" stroke-linecap="round" stroke-linejoin="round" stroke-miterlimit="10" cx="-1030.4" cy="3267.7" r="1.7"/>
			
				<circle fill="none" stroke="#4E8DCB" stroke-linecap="round" stroke-linejoin="round" stroke-miterlimit="10" cx="-1024.6" cy="3267.7" r="1.7"/>
		</g>
	</g>
	<g>
		<g>
			
				<ellipse fill="none" stroke="#AEB9B8" stroke-linecap="round" stroke-linejoin="round" stroke-miterlimit="10" cx="-1045.3" cy="3291.1" rx="7.4" ry="8.9"/>
			<path fill="none" stroke="#AEB9B8" stroke-linecap="round" stroke-linejoin="round" stroke-miterlimit="10" d="M-1041.3,3303.1
				l0.7,1.8l7.5,2.4c0,0,2.2,0.5,2.2,7.1h-28.7c0-6.5,2.2-7.1,2.2-7.1l7.5-2.4l0.7-1.9"/>
		</g>
		<path fill="none" stroke="#AEB9B8" stroke-linecap="round" stroke-linejoin="round" stroke-miterlimit="10" d="M-1051.8,3287.1
			c0,0,3.4,3,7.4,1c4-2,0.1,3.6,5.8-0.2"/>
	</g>
	<g>
		<g>
			
				<ellipse fill="none" stroke="#AEB9B8" stroke-linecap="round" stroke-linejoin="round" stroke-miterlimit="10" cx="-1005.6" cy="3293.2" rx="5.9" ry="7.1"/>
			<path fill="none" stroke="#AEB9B8" stroke-linecap="round" stroke-linejoin="round" stroke-miterlimit="10" d="M-1002.5,3302.7
				l0.6,1.4l6,1.9c0,0,1.7,0.4,1.7,5.6h-22.8c0-5.2,1.7-5.6,1.7-5.6l6-1.9l0.6-1.5"/>
		</g>
		<path fill="none" stroke="#AEB9B8" stroke-linecap="round" stroke-linejoin="round" stroke-miterlimit="10" d="M-1010.8,3290
			c0,0,2.7,2.3,5.9,0.8c3.2-1.6,0,2.8,4.6-0.1"/>
	</g>
</g>
</svg>
