<?xml version="1.0" encoding="utf-8"?>
<!-- Generator: Adobe Illustrator 16.0.0, SVG Export Plug-In . SVG Version: 6.00 Build 0)  -->
<!DOCTYPE svg PUBLIC "-//W3C//DTD SVG 1.1//EN" "http://www.w3.org/Graphics/SVG/1.1/DTD/svg11.dtd">
<svg version="1.1" id="Layer_1" xmlns="http://www.w3.org/2000/svg" xmlns:xlink="http://www.w3.org/1999/xlink" x="0px" y="0px"
	 width="240.765px" height="187.985px" viewBox="0 0 240.765 187.985" enable-background="new 0 0 240.765 187.985"
	 xml:space="preserve">
<g>
	<g>
		<path fill="none" d="M170.716,70.244c0-27.326-34.684-50.449-75.674-50.449S19.368,42.918,19.368,70.244
			c0,14.451,9.722,28.378,26.538,38.1l12.744,7.357l-4.599,11.035c2.759-1.576,5.519-3.284,8.146-5.123l5.781-4.073l6.963,1.314
			c6.568,1.182,13.269,1.839,20.101,1.839C136.032,120.693,170.716,97.57,170.716,70.244z"/>
		<path fill="#498AC9" d="M203.035,156.56c21.283-12.35,34.946-31.268,34.946-52.683c0-21.94-14.451-41.384-36.654-53.603
			c1.971,6.438,3.021,13.138,3.021,19.97c0,23.517-12.087,45.194-34.027,61.223c-20.363,14.714-47.033,22.859-75.279,22.859
			c-3.81,0-7.751-0.263-11.562-0.525c16.423,10.772,38.231,17.342,62.011,17.342c8.014,0,15.766-0.788,23.123-2.102
			c10.904,7.751,23.254,13.4,36.522,16.816c3.548,0.919,7.357,1.576,11.299,2.102c2.102,0.263,4.072-1.445,4.598-3.81
			c0.526-2.497-1.182-4.073-2.627-5.781C213.282,172.588,207.502,167.464,203.035,156.56z"/>
		<g>
			<path fill="#555655" d="M95.042,12.979c22.623,0,43.764,6.313,59.528,17.778c14.808,10.767,22.962,24.791,22.962,39.487
				s-8.154,28.72-22.962,39.487c-15.765,11.465-36.906,17.778-59.528,17.778c-6.945,0-14.133-0.654-21.366-1.946l-4.131-0.737
				l-3.42,2.432c-8.254,5.867-17.441,10.429-27.386,13.602c2.794-3.712,5.596-8.243,8.012-14.142l3.304-8.066l-7.539-4.374
				c-19.043-11.05-29.965-27.1-29.965-44.033c0-14.696,8.154-28.72,22.961-39.487C51.279,19.292,72.419,12.979,95.042,12.979
				 M95.042,2.979c-51.106,0-92.49,30.086-92.49,67.266c0,21.283,13.663,40.333,34.946,52.683
				c-4.467,10.904-10.247,16.028-15.371,21.809c-1.445,1.708-3.153,3.284-2.627,5.781c0.394,2.233,2.233,3.81,4.204,3.81
				c0.131,0,0.263,0,0.394,0c3.941-0.525,7.751-1.183,11.299-2.102c13.269-3.416,25.618-9.065,36.522-16.816
				c7.357,1.313,15.109,2.102,23.123,2.102c51.106,0,92.49-30.086,92.49-67.266S146.148,2.979,95.042,2.979L95.042,2.979z"/>
		</g>
	</g>
</g>
<g>
	<path fill="#142A40" d="M55.522,86.772c0-2.871,1.412-5.379,3.538-6.971c0.384-0.229,0.743-0.46,1.127-0.687
		c10.938-6.639,23.309-9.944,35.712-9.944c12.368,0,24.741,3.305,35.68,9.944c0.386,0.227,0.741,0.458,1.129,0.687
		c2.128,1.592,3.534,4.1,3.534,6.971c0,4.813-3.89,8.709-8.711,8.709c-1.817,0-3.508-0.565-4.916-1.513
		c-5.613-3.408-11.731-5.612-18.009-6.682v20.155c0,4.817-3.918,8.708-8.707,8.708c-4.819,0-8.734-3.891-8.734-8.708V87.287
		c-6.277,1.069-12.4,3.273-18.012,6.682c-1.383,0.948-3.072,1.513-4.915,1.513C59.419,95.483,55.522,91.588,55.522,86.772z"/>
	<path fill="#498AC9" d="M59.056,60.695c0.387,0.23,0.744,0.462,1.132,0.688c3.867,2.349,7.917,4.257,12.084,5.771
		c7.613-2.773,15.611-4.176,23.628-4.176c7.997,0,15.989,1.402,23.599,4.176c4.162-1.516,8.212-3.422,12.081-5.771
		c0.386-0.229,0.741-0.461,1.125-0.688c2.127-1.584,3.538-4.101,3.538-6.968c0-4.812-3.89-8.708-8.711-8.708
		c-1.843,0-3.533,0.561-4.916,1.513c-5.613,3.408-11.731,5.61-18.009,6.684v-20.16c0-4.811-3.92-8.706-8.736-8.706
		c-4.79,0-8.705,3.896-8.705,8.706v20.16c-6.277-1.073-12.4-3.275-18.012-6.684c-1.408-0.952-3.101-1.513-4.915-1.513
		c-4.815,0-8.713,3.896-8.713,8.708C55.522,56.595,56.928,59.108,59.056,60.695z"/>
</g>
</svg>
