<?xml version="1.0" encoding="utf-8"?>
<!-- Generator: Adobe Illustrator 18.1.1, SVG Export Plug-In . SVG Version: 6.00 Build 0)  -->
<svg version="1.0" id="Layer_1" xmlns="http://www.w3.org/2000/svg" xmlns:xlink="http://www.w3.org/1999/xlink" x="0px" y="0px"
	 viewBox="0 0 800 600" enable-background="new 0 0 800 600" xml:space="preserve">
<g>
	<g>
		<g>
			<path fill="#FFFFFF" d="M575.4,215.3v284.5c0,2.4-1.9,4.3-4.3,4.3H159.5c-2.4,0-4.3-1.9-4.3-4.3V215.3"/>
			<path fill="#B5C0C3" d="M571.1,505.8H159.5c-3.3,0-6-2.7-6-6V215.3h3.4v284.5c0,1.4,1.2,2.6,2.6,2.6h411.6c1.4,0,2.6-1.2,2.6-2.6
				V215.3h3.4v284.5C577.1,503.1,574.4,505.8,571.1,505.8z"/>
		</g>
		<g>
			<path fill="#E0E2E2" d="M575.4,215.3H155.1v-35.2c0-2.6,2.1-4.7,4.7-4.7h410.9c2.6,0,4.7,2.1,4.7,4.7V215.3L575.4,215.3z"/>
			<path fill="#B5C0C3" d="M577.2,217H153.4v-36.9c0-3.5,2.9-6.4,6.4-6.4h410.9c3.5,0,6.4,2.9,6.4,6.4V217H577.2z M156.8,213.6h417
				v-33.5c0-1.7-1.4-3-3-3H159.9c-1.7,0-3,1.3-3,3L156.8,213.6L156.8,213.6z"/>
		</g>
		<g>
			<g>
				<ellipse fill="#FFFFFF" cx="174" cy="195.4" rx="7.4" ry="7.4"/>
				<path fill="#B4BFC2" d="M174,204.1c-4.8,0-8.7-3.9-8.7-8.7s3.9-8.7,8.7-8.7s8.7,3.9,8.7,8.7S178.8,204.1,174,204.1z M174,189.4
					c-3.3,0-6.1,2.7-6.1,6.1s2.7,6.1,6.1,6.1s6.1-2.7,6.1-6.1S177.4,189.4,174,189.4z"/>
			</g>
			<g>
				<ellipse fill="#FFFFFF" cx="198" cy="195.4" rx="7.4" ry="7.4"/>
				<path fill="#B4BFC2" d="M198,204.1c-4.8,0-8.7-3.9-8.7-8.7s3.9-8.7,8.7-8.7s8.7,3.9,8.7,8.7S202.8,204.1,198,204.1z M198,189.4
					c-3.3,0-6.1,2.7-6.1,6.1s2.7,6.1,6.1,6.1c3.3,0,6.1-2.7,6.1-6.1S201.3,189.4,198,189.4z"/>
			</g>
			<g>
				<ellipse fill="#FFFFFF" cx="221.9" cy="195.4" rx="7.4" ry="7.4"/>
				<path fill="#B4BFC2" d="M221.9,204.1c-4.8,0-8.7-3.9-8.7-8.7s3.9-8.7,8.7-8.7s8.7,3.9,8.7,8.7S226.7,204.1,221.9,204.1z
					 M221.9,189.4c-3.3,0-6.1,2.7-6.1,6.1s2.7,6.1,6.1,6.1c3.3,0,6.1-2.7,6.1-6.1S225.2,189.4,221.9,189.4z"/>
			</g>
		</g>
		<g>
			<g opacity="0.5">
				<path fill="#82C1EA" d="M338.8,262.6H270c-0.4,0-0.9-0.4-0.9-0.9v-8.5c0-0.4,0.4-0.9,0.9-0.9h68.8c0.4,0,0.9,0.4,0.9,0.9v8.5
					C339.7,262.3,339.3,262.6,338.8,262.6z"/>
			</g>
			<g>
				<path fill="#E0E1E1" d="M414,274.3H270c-0.4,0-0.9-0.4-0.9-0.9v-5.6c0-0.4,0.4-0.9,0.9-0.9h144c0.4,0,0.9,0.4,0.9,0.9v5.6
					C414.9,273.9,414.6,274.3,414,274.3z"/>
			</g>
			<g>
				<path fill="#E0E1E1" d="M413.9,286H270.1c-0.6,0-1-0.4-1-1v-5.2c0-0.6,0.4-1,1-1h143.7c0.6,0,1,0.4,1,1v5.2
					C414.9,285.5,414.5,286,413.9,286z"/>
			</g>
		</g>
		<g>
			<g>
				<path fill="#B7B7B7" d="M287.7,401.5h-68.2c-0.7,0-1.2-0.5-1.2-1.2v-7.8c0-0.7,0.5-1.2,1.2-1.2h68.2c0.7,0,1.2,0.5,1.2,1.2v7.8
					C288.9,401,288.4,401.5,287.7,401.5z"/>
			</g>
			<g>
				<path fill="#E0E1E1" d="M552.1,413.2H219.5c-0.7,0-1.2-0.5-1.2-1.2v-4.9c0-0.7,0.5-1.2,1.2-1.2H552c0.7,0,1.2,0.5,1.2,1.2v4.9
					C553.3,412.7,552.7,413.2,552.1,413.2z"/>
			</g>
			<g>
				<path fill="#E0E1E1" d="M552.1,424.9H219.5c-0.7,0-1.2-0.5-1.2-1.2v-4.9c0-0.7,0.5-1.2,1.2-1.2H552c0.7,0,1.2,0.5,1.2,1.2v4.9
					C553.3,424.4,552.7,424.9,552.1,424.9z"/>
			</g>
		</g>
		<g>
			<g>
				<g>
					<g>
						<g>
							<path fill="#82C1EA" d="M183.5,283.8l16-6l1.3-4.5c2,1.2,4.2,1.8,6.6,1.8c2.4,0,4.8-0.7,6.8-1.9l1.3,4.7l16,6
								c0,0,1,0.2,1.9,1.8c5.5-6.1,8.8-14.3,8.8-23.1c0-19.2-15.6-34.8-34.8-34.8s-34.8,15.6-34.8,34.8c0,8.9,3.3,17,8.8,23.1
								C182.5,284,183.5,283.8,183.5,283.8z M207.4,238.9c5.5,0,10.3,3.9,12.6,9.6c-4,2.5-4.9,2.3-5,2.3c-0.1-0.1-0.2-0.4-0.3-0.7
								c-0.2-0.7-0.5-1.8-1.6-2.2c-1-0.4-2.4-0.2-4.4,0.8c-6.4,3.1-11.8-0.4-13.3-1.4C197.8,242.2,202.2,238.9,207.4,238.9z
								 M194.4,249.5c2.3,1.6,8.3,4.7,15.3,1.3c1.4-0.7,2-0.7,2.3-0.7c0.1,0,0.1,0,0.1,0c0.1,0.1,0.2,0.5,0.3,0.7
								c0.2,0.7,0.6,1.8,1.8,2.3c0.3,0.1,0.6,0.1,1,0.1c1.3,0,3-0.7,5.7-2.4c0.4,1.6,0.6,3.2,0.6,4.9c0,7.5-4,13.8-9.5,16
								c-1.4,0.6-2.9,0.9-4.4,0.9c-1.7,0-3.3-0.4-4.8-1c-5.3-2.4-9.2-8.6-9.2-15.9C193.4,253.6,193.8,251.4,194.4,249.5z"/>
						</g>
					</g>
				</g>
				<g>
					<g>
						<path fill="#63A3D8" d="M207.5,297.2c10.3,0,19.6-4.5,26-11.7c-1-1.6-1.9-1.8-1.9-1.8l-16-6l-1.3-4.7
							c-2.1,1.3-4.4,1.9-6.8,1.9c-2.4,0-4.6-0.7-6.6-1.8l-1.3,4.5l-16,6c0,0-1,0.2-1.9,1.8C187.9,292.7,197.2,297.2,207.5,297.2z"/>
					</g>
				</g>
				<g>
					<g>
						<path fill="#63A3D8" d="M202.5,271.6c1.5,0.7,3.1,1,4.8,1c1.6,0,3-0.3,4.4-0.9c5.5-2.2,9.5-8.6,9.5-16c0-1.7-0.2-3.3-0.6-4.9
							c-2.6,1.6-4.4,2.4-5.7,2.4c-0.4,0-0.7-0.1-1-0.1c-1.2-0.4-1.6-1.6-1.8-2.3c-0.1-0.2-0.2-0.7-0.3-0.7c0,0,0,0-0.1,0
							c-0.2,0-0.9,0.1-2.3,0.7c-6.9,3.4-13,0.2-15.3-1.3c-0.7,1.9-1,4.1-1,6.3C193.4,263,197.2,269.2,202.5,271.6z"/>
					</g>
				</g>
				<g>
					<g>
						<path fill="#63A3D8" d="M208.6,248.6c2.1-1,3.4-1.3,4.4-0.8c1.1,0.4,1.4,1.6,1.6,2.2c0.1,0.2,0.2,0.6,0.3,0.7
							c0.1,0,1,0.2,5-2.3c-2.3-5.7-7.1-9.6-12.6-9.6c-5.1,0-9.6,3.3-12,8.3C196.8,248.2,202.3,251.7,208.6,248.6z"/>
					</g>
				</g>
			</g>
		</g>
		<g>
			<g>
				<g>
					<path fill="#B7B7B7" d="M287.7,457.4h-68.2c-0.7,0-1.2-0.5-1.2-1.2v-7.8c0-0.7,0.5-1.2,1.2-1.2h68.2c0.7,0,1.2,0.5,1.2,1.2v7.8
						C288.9,456.9,288.4,457.4,287.7,457.4z"/>
				</g>
				<g>
					<path fill="#E0E1E1" d="M552.1,469H219.5c-0.7,0-1.2-0.5-1.2-1.2V463c0-0.7,0.5-1.2,1.2-1.2H552c0.7,0,1.2,0.5,1.2,1.2v4.9
						C553.3,468.5,552.7,469,552.1,469z"/>
				</g>
				<g>
					<path fill="#E0E1E1" d="M552.1,480.7H219.5c-0.7,0-1.2-0.5-1.2-1.2v-4.9c0-0.7,0.5-1.2,1.2-1.2H552c0.7,0,1.2,0.5,1.2,1.2v4.9
						C553.3,480.1,552.7,480.7,552.1,480.7z"/>
				</g>
			</g>
		</g>
		<g>
			<g>
				<g>
					<path fill="#B7B7B7" d="M287.7,344.1h-68.2c-0.7,0-1.2-0.5-1.2-1.2v-7.8c0-0.7,0.5-1.2,1.2-1.2h68.2c0.7,0,1.2,0.5,1.2,1.2v7.8
						C288.9,343.6,288.4,344.1,287.7,344.1z"/>
				</g>
				<g>
					<path fill="#E0E1E1" d="M552.1,355.8H219.5c-0.7,0-1.2-0.5-1.2-1.2v-4.9c0-0.7,0.5-1.2,1.2-1.2H552c0.7,0,1.2,0.5,1.2,1.2v4.9
						C553.3,355.2,552.7,355.8,552.1,355.8z"/>
				</g>
				<g>
					<path fill="#E0E1E1" d="M552.1,367.4H219.5c-0.7,0-1.2-0.5-1.2-1.2v-4.9c0-0.7,0.5-1.2,1.2-1.2H552c0.7,0,1.2,0.5,1.2,1.2v4.9
						C553.3,366.8,552.7,367.4,552.1,367.4z"/>
				</g>
			</g>
		</g>
		<g>
			<rect x="156.9" y="308.2" fill="#E0E1E1" width="417.3" height="2.7"/>
		</g>
		<g>
			<g>
				<path fill="#E0E1E1" d="M552.4,261.2h-52.3c-0.4,0-0.8-0.4-0.8-0.8v-4.2c0-0.4,0.4-0.8,0.8-0.8h52.3c0.4,0,0.8,0.4,0.8,0.8v4.2
					C553.3,260.8,552.9,261.2,552.4,261.2z"/>
			</g>
			<g>
				<path fill="#E0E1E1" d="M552.4,251.6h-52.3c-0.4,0-0.8-0.4-0.8-0.8v-4.2c0-0.4,0.4-0.8,0.8-0.8h52.3c0.4,0,0.8,0.4,0.8,0.8v4.2
					C553.3,251.2,552.9,251.6,552.4,251.6z"/>
			</g>
			<g>
				<path fill="#E0E1E1" d="M552.4,270.6h-52.3c-0.4,0-0.8-0.4-0.8-0.8v-4.2c0-0.4,0.4-0.8,0.8-0.8h52.3c0.4,0,0.8,0.4,0.8,0.8v4.2
					C553.3,270.2,552.9,270.6,552.4,270.6z"/>
			</g>
		</g>
		<g>
			<g>
				<polygon fill="#63A3D8" points="275.9,235.5 277.9,239.6 282.4,240.2 279.2,243.4 279.9,247.9 275.9,245.8 271.8,247.9 
					272.6,243.4 269.3,240.2 273.9,239.6 				"/>
			</g>
			<g>
				<g>
					<path fill="#82C1EA" d="M286.6,238.3c-0.1-0.1,0-0.4,0.2-0.4h1.2c0.1,0,0.2,0.1,0.2,0.1l2.4,5.3h0.1l2.4-5.3
						c0-0.1,0.1-0.1,0.2-0.1h1.2c0.2,0,0.2,0.1,0.2,0.4l-3.8,8.3c0,0.1-0.1,0.1-0.2,0.1h-0.1c-0.1,0-0.1-0.1-0.2-0.1L286.6,238.3z"
						/>
				</g>
				<g>
					<path fill="#82C1EA" d="M295.9,238.3c0-0.1,0.1-0.2,0.2-0.2h1.1c0.1,0,0.2,0.1,0.2,0.2v8c0,0.1-0.1,0.2-0.2,0.2h-1.1
						c-0.1,0-0.2-0.1-0.2-0.2V238.3z"/>
				</g>
				<g>
					<path fill="#82C1EA" d="M299.7,238.3c0-0.1,0.1-0.2,0.2-0.2h2.9c1.6,0,2.8,1.2,2.8,2.8s-1.2,2.8-2.8,2.8h-1.6v2.9
						c0,0.1-0.1,0.2-0.2,0.2h-1.1c-0.1,0-0.2-0.1-0.2-0.2V238.3z M302.7,242.1c0.7,0,1.3-0.6,1.3-1.3c0-0.7-0.6-1.2-1.3-1.2h-1.4
						v2.4h1.4V242.1z"/>
				</g>
			</g>
		</g>
	</g>
	<g>
		<g>
			<path fill="#FFFFFF" d="M606.2,555.3H439.6c-20.4,0-37-16.6-37-37V81.7c0-20.4,16.6-37,37-37h166.6c20.4,0,37,16.6,37,37v436.6
				C643.2,538.8,626.6,555.3,606.2,555.3z"/>
		</g>
		<g>
			<path fill="#B5C0C3" d="M606.2,557H439.6c-21.3,0-38.7-17.4-38.7-38.7V81.7c0-21.3,17.4-38.7,38.7-38.7h166.6
				c21.3,0,38.7,17.4,38.7,38.7v436.6C644.9,539.7,627.5,557,606.2,557z M439.6,46.4c-19.5,0-35.3,15.8-35.3,35.3v436.6
				c0,19.5,15.8,35.3,35.3,35.3h166.6c19.5,0,35.3-15.8,35.3-35.3V81.7c0-19.5-15.8-35.3-35.3-35.3
				C606.2,46.4,439.6,46.4,439.6,46.4z"/>
		</g>
	</g>
	<g>
		<g>
			<circle fill="#E0E2E2" cx="522.9" cy="518.7" r="21.2"/>
		</g>
		<g>
			<path fill="#B5C0C3" d="M522.9,541.6c-12.6,0-22.9-10.3-22.9-22.9c0-12.6,10.3-22.9,22.9-22.9c12.6,0,22.9,10.3,22.9,22.9
				C545.8,531.3,535.5,541.6,522.9,541.6z M522.9,499.1c-10.8,0-19.5,8.8-19.5,19.5c0,10.7,8.8,19.5,19.5,19.5s19.5-8.8,19.5-19.5
				S533.6,499.1,522.9,499.1z"/>
		</g>
	</g>
	<g>
		<g>
			<rect x="416.5" y="115.4" fill="#FFFFFF" width="211.6" height="366.6"/>
		</g>
		<g>
			<path fill="#B5C0C3" d="M629.8,483.7h-215v-370h215V483.7z M418.2,480.3h208.3V117.1H418.2V480.3z"/>
		</g>
	</g>
	<g>
		<g>
			<path fill="#E0E2E2" d="M537.9,94.2h-30.1c-2,0-3.6-1.6-3.6-3.6v-0.5c0-2,1.6-3.6,3.6-3.6h30.1c2,0,3.6,1.6,3.6,3.6v0.5
				C541.5,92.6,539.9,94.2,537.9,94.2z"/>
		</g>
		<g>
			<path fill="#B5C0C3" d="M537.9,95.9h-30.1c-2.9,0-5.3-2.4-5.3-5.3v-0.5c0-2.9,2.4-5.3,5.3-5.3h30.1c2.9,0,5.3,2.4,5.3,5.3v0.5
				C543.2,93.5,540.9,95.9,537.9,95.9z M507.8,88.2c-1,0-1.9,0.8-1.9,1.9v0.5c0,1,0.8,1.9,1.9,1.9h30.1c1,0,1.9-0.8,1.9-1.9v-0.5
				c0-1-0.8-1.9-1.9-1.9H507.8z"/>
		</g>
	</g>
	<g opacity="0.4">
		<polygon fill="#B5C0C3" points="402.6,505 365.3,505 391.2,174.5 402.6,174.5 		"/>
	</g>
	<g>
		<g id="WhatsApp_2_">
			<path fill="#74C044" d="M202.9,409c0,7.6-6.2,13.8-13.9,13.8c-2.4,0-4.7-0.6-6.7-1.7l-7.7,2.5l2.5-7.4c-1.3-2.1-2-4.5-2-7.1
				c0-7.6,6.2-13.8,13.9-13.8C196.6,395.2,202.9,401.4,202.9,409z M188.9,397.4c-6.5,0-11.7,5.2-11.7,11.6c0,2.5,0.8,4.9,2.2,6.8
				l-1.5,4.3l4.5-1.4c1.9,1.2,4.1,1.9,6.4,1.9c6.5,0,11.7-5.2,11.7-11.6C200.7,402.6,195.4,397.4,188.9,397.4z M196,412.2
				c-0.1-0.1-0.3-0.2-0.7-0.4c-0.3-0.2-2-1-2.3-1.1s-0.5-0.2-0.8,0.2c-0.2,0.3-0.9,1.1-1.1,1.3c-0.2,0.2-0.4,0.3-0.7,0.1
				c-0.3-0.2-1.4-0.5-2.7-1.7c-1-0.9-1.7-2-1.9-2.3s0-0.5,0.1-0.7c0.2-0.2,0.3-0.4,0.5-0.6s0.2-0.3,0.3-0.6c0.1-0.2,0.1-0.4,0-0.6
				s-0.8-1.8-1.1-2.5s-0.6-0.6-0.8-0.6s-0.4,0-0.7,0c-0.2,0-0.6,0.1-0.9,0.4c-0.3,0.3-1.2,1.2-1.2,2.8c0,1.7,1.2,3.3,1.4,3.5
				s2.4,3.8,5.8,5.1c3.5,1.4,3.5,0.9,4.1,0.8s2-0.8,2.3-1.6C196.1,413,196.1,412.4,196,412.2z"/>
		</g>
	</g>
	<g>
		<path fill="#5FA9DD" d="M204.1,342.9c-1,0.4-2.1,0.7-3.2,0.9c1.1-0.7,2-1.8,2.4-3.1c-1.1,0.6-2.3,1.1-3.5,1.4
			c-1-1.1-2.4-1.8-4-1.8c-3.1,0-5.5,2.5-5.5,5.6c0,0.4,0,0.9,0.1,1.3c-4.6-0.2-8.7-2.4-11.4-5.8c-0.5,0.8-0.7,1.8-0.7,2.8
			c0,1.9,1,3.6,2.5,4.6c-0.9,0-1.8-0.3-2.5-0.7c0,0,0,0,0,0.1c0,2.7,1.9,4.9,4.4,5.5c-0.5,0.1-1,0.2-1.5,0.2c-0.4,0-0.7,0-1-0.1
			c0.7,2.2,2.7,3.8,5.2,3.9c-1.9,1.5-4.3,2.4-6.9,2.4c-0.4,0-0.9,0-1.3-0.1c2.4,1.6,5.4,2.5,8.5,2.5c10.2,0,15.7-8.5,15.7-15.8
			c0-0.2,0-0.5,0-0.7C202.4,345,203.3,344,204.1,342.9z"/>
	</g>
	<g>
		<g>
			<path fill="#5FA9DD" d="M459.2,207.3c-1.1,0.5-2.3,0.8-3.5,1c1.3-0.8,2.2-2,2.7-3.4c-1.2,0.7-2.5,1.2-3.9,1.5
				c-1.1-1.2-2.7-2-4.5-2c-3.4,0-6.2,2.8-6.2,6.2c0,0.5,0.1,1,0.2,1.4c-5.1-0.3-9.6-2.7-12.7-6.5c-0.5,0.9-0.8,2-0.8,3.1
				c0,2.1,1.1,4,2.7,5.1c-1,0-2-0.3-2.8-0.8v0.1c0,3,2.1,5.5,4.9,6.1c-0.5,0.1-1.1,0.2-1.6,0.2c-0.4,0-0.8,0-1.2-0.1
				c0.8,2.5,3.1,4.2,5.7,4.3c-2.1,1.7-4.8,2.6-7.6,2.6c-0.5,0-1,0-1.5-0.1c2.7,1.8,6,2.8,9.4,2.8c11.3,0,17.5-9.4,17.5-17.6
				c0-0.3,0-0.5,0-0.8C457.3,209.7,458.4,208.6,459.2,207.3z"/>
		</g>
		<g>
			<g>
				<g>
					<path fill="#5FA9DD" d="M597.6,230h-107c-8.8,0-15.9-7.1-15.9-15.9v-5.4c0-8.8,7.1-15.9,15.9-15.9h107
						c8.8,0,15.9,7.1,15.9,15.9v5.4C613.6,222.9,606.4,230,597.6,230z"/>
				</g>
			</g>
			<g>
				<path fill="#5FA9DD" d="M477.4,218.7c0,0-0.7,6.7-4.1,11.2c-0.1,0.2,0,0.4,0.2,0.4c2.3-0.4,11.3-2.5,17-10.9L477.4,218.7z"/>
			</g>
		</g>
		<g opacity="0.5">
			<path fill="#FFFFFF" d="M592.2,208.6h-101c-1.1,0-2.1-0.9-2.1-2.1v-2.4c0-1.1,0.9-2.1,2.1-2.1h101c1.1,0,2.1,0.9,2.1,2.1v2.4
				C594.2,207.7,593.3,208.6,592.2,208.6z"/>
		</g>
		<g opacity="0.5">
			<path fill="#FFFFFF" d="M547.1,220.5h-56.5c-0.9,0-1.5-0.7-1.5-1.5v-3.4c0-0.9,0.7-1.5,1.5-1.5h56.5c0.9,0,1.5,0.7,1.5,1.5v3.4
				C548.7,219.8,548,220.5,547.1,220.5z"/>
		</g>
	</g>
	<g>
		<g>
			<g id="WhatsApp">
				<path fill="#74C044" d="M461.2,272.8c0,9.1-7.4,16.5-16.6,16.5c-2.9,0-5.7-0.7-8-2.1l-9.2,2.9l3-8.9c-1.5-2.5-2.4-5.4-2.4-8.5
					c0-9.1,7.4-16.5,16.6-16.5C453.7,256.3,461.2,263.7,461.2,272.8z M444.5,258.9c-7.7,0-14,6.2-14,13.9c0,3,1,5.8,2.7,8.1
					l-1.7,5.2l5.4-1.7c2.2,1.4,4.9,2.3,7.7,2.3c7.7,0,14-6.2,14-13.9C458.5,265.2,452.2,258.9,444.5,258.9z M452.9,276.6
					c-0.1-0.2-0.4-0.3-0.8-0.5s-2.4-1.2-2.8-1.3c-0.4-0.1-0.6-0.2-0.9,0.2c-0.3,0.4-1.1,1.3-1.3,1.6c-0.2,0.3-0.5,0.3-0.9,0.1
					c-0.4-0.2-1.7-0.6-3.3-2c-1.2-1.1-2-2.4-2.3-2.8c-0.2-0.4,0-0.6,0.2-0.8c0.2-0.2,0.4-0.5,0.6-0.7s0.3-0.4,0.4-0.7
					c0.1-0.3,0.1-0.5,0-0.7s-0.9-2.2-1.3-3c-0.3-0.8-0.7-0.7-0.9-0.7c-0.2,0-0.5,0-0.8,0s-0.7,0.1-1.1,0.5s-1.4,1.4-1.4,3.4
					s1.5,3.9,1.7,4.2c0.2,0.3,2.8,4.5,7,6.1c4.1,1.6,4.1,1.1,4.9,1c0.7-0.1,2.4-1,2.8-1.9C453,277.6,453,276.8,452.9,276.6z"/>
			</g>
		</g>
		<g>
			<g>
				<g>
					<path fill="#74C044" d="M597.6,290.4h-107c-8.8,0-15.9-7.1-15.9-15.9v-5.4c0-8.8,7.1-15.9,15.9-15.9h107
						c8.8,0,15.9,7.1,15.9,15.9v5.4C613.6,283.3,606.4,290.4,597.6,290.4z"/>
				</g>
			</g>
			<g>
				<path fill="#74C044" d="M477.4,279.1c0,0-0.7,6.7-4.1,11.2c-0.1,0.2,0,0.4,0.2,0.4c2.3-0.4,11.3-2.5,17-10.9L477.4,279.1z"/>
			</g>
		</g>
		<g opacity="0.5">
			<path fill="#FFFFFF" d="M592.2,268.8h-101c-1.1,0-2.1-0.9-2.1-2.1v-2.4c0-1.1,0.9-2.1,2.1-2.1h101c1.1,0,2.1,0.9,2.1,2.1v2.4
				C594.2,267.9,593.3,268.8,592.2,268.8z"/>
		</g>
		<g opacity="0.5">
			<path fill="#FFFFFF" d="M547.1,280.7h-56.5c-0.9,0-1.5-0.7-1.5-1.5v-3.4c0-0.9,0.7-1.5,1.5-1.5h56.5c0.9,0,1.5,0.7,1.5,1.5v3.4
				C548.7,280.1,548,280.7,547.1,280.7z"/>
		</g>
	</g>
	<g>
		<g>
			<g>
				<g>
					<g>
						<path fill="#3B5999" d="M597.6,350.9h-107c-8.8,0-15.9-7.1-15.9-15.9v-5.4c0-8.8,7.1-15.9,15.9-15.9h107
							c8.8,0,15.9,7.1,15.9,15.9v5.4C613.6,343.7,606.4,350.9,597.6,350.9z"/>
					</g>
				</g>
				<g>
					<path fill="#3B5999" d="M477.4,339.6c0,0-0.7,6.7-4.1,11.2c-0.1,0.2,0,0.4,0.2,0.4c2.3-0.4,11.3-2.5,17-10.9L477.4,339.6z"/>
				</g>
			</g>
		</g>
		<g opacity="0.5">
			<path fill="#FFFFFF" d="M592.2,329.2h-101c-1.1,0-2.1-0.9-2.1-2.1v-2.4c0-1.1,0.9-2.1,2.1-2.1h101c1.1,0,2.1,0.9,2.1,2.1v2.4
				C594.2,328.3,593.3,329.2,592.2,329.2z"/>
		</g>
		<g opacity="0.5">
			<path fill="#FFFFFF" d="M547.1,341.1h-56.5c-0.9,0-1.5-0.7-1.5-1.5v-3.4c0-0.9,0.7-1.5,1.5-1.5h56.5c0.9,0,1.5,0.7,1.5,1.5v3.4
				C548.7,340.4,548,341.1,547.1,341.1z"/>
		</g>
	</g>
	<g>
		<g id="post-facebook">
			<g>
				<path fill="#3B5999" d="M455.2,320.1h-25c-1.7,0-3.1,1.4-3.1,3.1v25c0,1.7,1.4,3.1,3.1,3.1h25c1.7,0,3.1-1.4,3.1-3.1v-25
					C458.4,321.5,456.9,320.1,455.2,320.1z M453.7,323.2v4.7h-3.1c-0.9,0-1.6,0.6-1.6,1.6v3.1h4.7v4.7H449v10.9h-4.7v-10.9h-3.1
					v-4.7h3.1v-3.9c0-3,2.5-5.5,5.5-5.5L453.7,323.2L453.7,323.2z"/>
			</g>
		</g>
	</g>
	<g>
		<g id="post-facebook_1_">
			<g>
				<path fill="#3B5999" d="M197.3,451h-20.4c-1.4,0-2.5,1.1-2.5,2.5v20.4c0,1.4,1.1,2.5,2.5,2.5h20.4c1.4,0,2.5-1.1,2.5-2.5v-20.4
					C199.8,452.2,198.7,451,197.3,451z M196,453.6v3.8h-2.5c-0.8,0-1.3,0.5-1.3,1.3v2.5h3.8v3.8h-3.8v8.9h-3.8V465h-2.5v-3.8h2.5
					V458c0-2.4,2-4.5,4.5-4.5h3.1V453.6z"/>
			</g>
		</g>
	</g>
</g>
</svg>
