<?xml version="1.0" encoding="utf-8"?>
<!-- Generator: Adobe Illustrator 16.0.0, SVG Export Plug-In . SVG Version: 6.00 Build 0)  -->
<!DOCTYPE svg PUBLIC "-//W3C//DTD SVG 1.1//EN" "http://www.w3.org/Graphics/SVG/1.1/DTD/svg11.dtd">
<svg version="1.1" id="Layer_1" xmlns:sketch="http://www.bohemiancoding.com/sketch/ns"
	 xmlns="http://www.w3.org/2000/svg" xmlns:xlink="http://www.w3.org/1999/xlink" x="0px" y="0px" width="206.108px"
	 height="190.584px" viewBox="202.878 455.916 206.108 190.584" enable-background="new 202.878 455.916 206.108 190.584"
	 xml:space="preserve">
<title>lyft</title>
<desc>Created with Sketch.</desc>
<g>
	<path fill="#2D5E8F" d="M310.973,490.707c1.071-2.524-0.153-4.438-0.995-6.35c-1.453-3.289-3.136-6.426-4.437-9.716
		c-2.219-5.354-1.224-10.403,2.678-14.534c3.901-4.055,8.797-5.202,14.382-3.29c5.661,1.913,9.868,5.585,13.464,10.251
		c6.503,8.568,10.175,18.36,12.852,28.688c2.831,10.939,4.361,22.186,4.743,33.507c0.153,3.52,0.307,7.115,0.459,10.634
		c0,0.994-0.152,1.989-0.229,3.137c-3.365,0-6.502,0-9.792,0c-0.152-0.612-0.382-1.225-0.382-1.76
		c-0.229-5.584-0.307-11.169-0.766-16.754c-0.841-12.698-2.983-25.168-7.727-37.102c-1.988-4.973-4.513-9.716-8.186-13.694
		c-1.988-2.142-4.131-4.054-7.037-4.972c-1.378-0.459-2.678-0.766-3.902,0.459c-1.3,1.377-0.306,2.677,0.153,3.901
		c0.842,1.988,2.065,3.825,3.137,5.661c1.912,3.365,2.907,7.037,2.754,10.939c-0.153,3.824-1.53,7.114-4.208,9.944
		c-4.283,4.208-11.169,4.208-14.994,0.536c-3.06-2.983-5.432-6.35-7.573-9.945c-1.224-2.065-2.525-4.131-3.978-6.044
		c-2.295-3.06-4.131-3.06-6.885-0.382c-4.208,4.131-6.35,9.409-8.415,14.765c-2.831,7.649-4.36,15.605-5.355,23.715
		c-0.765,6.426-1.53,12.852-2.372,19.277c-0.076,0.459-0.382,0.918-0.688,1.836c-2.831,0-5.661,0-8.568,0
		c-1.3,0-1.759-0.841-1.606-2.065c1.913-16.141,3.749-32.282,9.486-47.583c2.295-6.119,5.125-11.934,9.41-16.906
		c1.759-2.142,3.901-4.055,6.196-5.584c4.896-3.29,9.18-2.755,13.464,1.377c3.519,3.365,6.043,7.497,8.568,11.628
		c1.147,1.836,2.371,3.596,3.596,5.354C308.678,490.248,308.754,490.172,310.973,490.707z"/>
	<path fill="#2D5E8F" d="M363.146,608.211c1.606-2.524,3.366-5.125,5.049-7.65c5.967,1.836,8.109,6.503,8.032,11.398
		c-0.076,3.673-1.3,6.962-3.672,9.793c-3.824,4.59-8.797,7.726-14.152,10.174c-10.251,4.59-21.037,7.191-32.206,8.645
		c-10.939,1.377-21.803,1.836-32.742,1.301c-12.087-0.535-24.021-2.065-35.573-5.967c-4.59-1.53-9.104-3.366-13.005-6.273
		c-2.295-1.76-4.514-3.825-6.12-6.196c-4.743-7.038-2.448-15.759,5.738-20.426c4.437-2.524,9.333-3.289,14.305-3.596
		c7.191-0.459,14.229,0.766,21.114,2.372c9.027,2.065,17.748,5.278,26.24,9.026c0.688,0.307,1.377,0.612,1.988,1.071
		c1.837,1.225,2.678,3.061,2.143,4.896c-0.536,1.912-2.372,3.748-4.361,3.748c-1.606,0-3.29-0.306-4.819-0.918
		c-6.196-2.601-12.393-5.125-18.896-6.885c-7.65-2.065-15.453-3.29-23.333-2.831c-2.907,0.153-5.891,0.688-8.492,1.684
		c-4.208,1.683-4.743,5.432-1.224,8.338c2.142,1.76,4.59,3.29,7.038,4.438c7.344,3.366,15.07,5.125,23.026,6.35
		c11.628,1.836,23.333,1.988,35.037,1.3c13.082-0.765,25.934-2.906,38.098-8.262c3.365-1.453,6.731-3.06,9.485-5.584
		C366.053,614.255,366.205,613.107,363.146,608.211z"/>
	<path fill="#2D5E8F" d="M232.79,589.698c0-2.983,0-5.814,0-8.798c1.683-0.229,3.29-0.459,5.355-0.765
		c-0.688-2.065-1.301-3.672-1.913-5.508c-5.508,0-10.939,0-16.753,0c-0.536,1.606-1.147,3.289-1.836,5.354
		c2.142,0.229,3.825,0.459,5.584,0.688c0,3.137,0,5.891,0,8.721c-2.448,0.842-15.683,0.995-20.349,0.229c0-1.377,0-2.906,0-4.437
		c0-1.377,0-2.754,0-4.131c0.612-0.229,0.995-0.459,1.301-0.383c2.142,0.153,3.136-1.071,3.825-2.907
		c2.295-6.35,4.667-12.622,7.038-18.896c1.683-4.513,3.442-8.95,5.355-13.77c-1.836-0.153-3.442-0.306-5.202-0.459
		c-0.688-2.678-0.382-5.355-0.229-7.956c0-0.535,1.147-1.53,1.76-1.53c4.437-0.076,8.95-0.153,13.387,0.077
		c2.525,0.076,4.131,1.606,4.973,4.054c1.836,4.973,3.825,9.945,5.661,14.918c2.907,7.879,5.814,15.683,8.645,23.562
		c0.688,1.836,1.53,3.137,3.825,2.754c1.301-0.229,2.219,0.383,2.219,1.836c0,2.372,0,4.82,0,7.115
		C252.374,590.157,237.609,590.31,232.79,589.698z M233.478,565.906c-1.836-4.743-3.366-8.874-4.973-12.929
		c-0.076-0.152-0.382-0.229-0.918-0.459c-1.759,4.361-3.29,8.722-4.36,13.388C226.746,565.906,229.806,565.906,233.478,565.906z"/>
	<path fill="#2D5E8F" d="M291.235,545.175c-1.147-0.229-2.065-0.382-2.983-0.535c-0.153-0.306-0.382-0.536-0.382-0.766
		c-0.077-2.065-0.077-4.054-0.077-6.119c0.077-2.448,0.306-2.678,2.601-2.678c3.213-0.077,6.35-0.077,9.562,0
		c2.754,0.076,2.907,0.229,2.907,3.137c0,4.972,0,9.944,0,14.917c0,0.994,0.077,1.989,0.153,3.213
		c0.688-0.459,1.071-0.688,1.454-0.994c10.174-7.038,23.333-1.453,25.091,10.863c0.536,3.595,0.46,7.42-0.152,11.016
		c-2.065,12.087-16.218,17.289-25.934,9.792c-0.153-0.153-0.459-0.153-0.918-0.306c-0.229,0.918-0.459,1.836-0.765,3.136
		c-4.667,0.229-9.41,0.077-14.382,0.077c-0.995-3.137-0.229-6.12-0.536-9.257c1.606-0.306,2.907-0.535,4.36-0.765
		C291.235,568.354,291.235,556.88,291.235,545.175z M318.087,570.649c-0.306-0.918-0.612-2.83-1.453-4.514
		c-1.301-2.601-3.52-3.901-6.503-3.748c-2.83,0.152-4.896,1.453-5.967,4.055c-1.454,3.442-1.53,6.885,0.306,10.251
		c1.147,2.065,2.831,3.213,5.125,3.442C314.874,580.671,317.857,576.999,318.087,570.649z"/>
	<path fill="#2D5E8F" d="M332.393,601.861c0.842-1.301,1.453-2.219,2.065-3.137c1.071-1.377,2.219-2.754,3.366-4.207
		c1.453,0.918,2.754,1.76,4.055,2.448c2.83,1.377,5.201,0.535,6.578-2.372c0.612-1.3,1.53-2.678,0.995-4.207
		c-0.153-0.153-0.306-0.229-0.383-0.229c-4.59,0.688-6.043-2.143-7.19-5.891c-2.066-6.809-4.514-13.464-6.809-20.119
		c-0.153-0.459-0.459-0.919-0.688-1.454c-1.147-0.153-2.295-0.306-3.825-0.459c0-2.448-0.076-4.819,0-7.19
		c0.076-2.066,0.383-2.372,2.448-2.448c3.672-0.077,7.42,0,11.092,0c1.53,0,3.061,0,4.667,0c0.994,2.983,0.535,5.813,0.383,8.491
		c-0.077,0.688-1.301,1.301-2.372,2.295c1.224,4.667,2.524,9.64,3.901,14.688c0.307,1.07,0.918,1.836,2.372,1.3
		c0.306-0.688,0.688-1.453,0.994-2.295c1.453-4.743,2.907-9.409,4.36-14.306c-1.224-0.306-2.142-0.459-3.289-0.765
		c0-2.983,0-5.967,0-9.257c1.224-0.076,2.295-0.229,3.442-0.229c4.743,0,9.409-0.076,14.152,0c2.371,0,2.678,0.307,2.678,2.602
		c0,2.219-0.077,4.514-0.077,6.961c-1.453,0.153-2.524,0.307-3.748,0.46c-0.153,0.229-0.459,0.459-0.535,0.765
		c-3.825,10.48-7.65,20.961-11.398,31.441c-0.307,0.842-0.612,1.683-0.918,2.524c-4.055,10.404-14.612,13.464-23.562,6.732
		C334.305,603.468,333.54,602.779,332.393,601.861z"/>
	<path fill="#2D5E8F" d="M400.478,555.885c0.918-3.06,0.918-3.06,3.289-3.137c1.147,0,2.295,0,3.442,0.077
		c0.383,0,0.689,0.306,1.378,0.688c0,2.142,0,4.36,0,6.655c0,2.142,0,4.284,0,6.655c-3.061,0-5.814,0-8.798,0
		c-0.842-3.824-3.29-5.737-7.344-5.508c-2.065,0.076-3.366,0.842-3.672,2.143c-0.383,1.3,0.688,2.983,2.601,3.672
		c2.983,1.07,6.044,1.988,9.027,2.906c0.688,0.229,1.453,0.459,2.142,0.688c3.519,1.225,5.967,3.52,6.35,7.345
		c0.459,3.748-0.765,7.038-3.901,9.409c-3.213,2.448-6.885,3.213-10.787,2.83c-3.672-0.306-7.267-1.07-10.557-3.672
		c-0.306,1.225-0.459,2.065-0.688,3.137c-2.371,0-4.743,0-7.497,0c-0.765-4.437-0.459-8.874-0.153-13.54c2.907,0,5.509,0,8.415,0
		c0.459,0.688,1.071,1.529,1.684,2.295c1.683,2.142,6.12,3.519,8.645,2.677c1.071-0.382,2.371-0.841,2.219-2.218
		c-0.077-0.842-0.918-1.989-1.684-2.295c-1.989-0.842-4.055-1.301-6.12-1.989c-2.142-0.688-4.437-1.225-6.426-2.219
		c-4.284-2.142-5.967-5.967-4.973-10.48c0.688-2.907,2.143-5.354,4.667-7.19c4.36-3.214,12.47-3.366,16.906-0.229
		C399.254,554.891,399.789,555.273,400.478,555.885z"/>
	<path fill="#2D5E8F" d="M257.576,589.774c0-2.983,0-5.737,0-8.645c1.071-0.306,2.065-0.612,3.213-0.918c0-5.813,0-11.552,0-17.442
		c-0.918-0.229-1.913-0.459-2.831-0.611c-0.841-2.831-0.841-6.579,0.077-9.486c3.672,0,7.497,0,11.322,0
		c1.683,0,2.219,0.918,2.142,2.448c-0.077,2.142,0,4.284,0,7.421c0.995-1.607,1.53-2.372,2.065-3.214
		c2.983-5.049,7.956-6.426,13.234-7.19c1.147-0.153,2.066,0.688,2.066,1.836c0.076,3.366,0,6.809,0,10.557c-1.607,0-2.831,0-4.055,0
		c-2.219,0-4.284,0.153-6.273,1.225c-3.366,1.759-5.125,4.437-5.279,8.186c-0.076,1.988,0,3.978,0,5.967
		c4.208,0.765,4.208,0.765,4.208,4.819c0,1.606,0,3.213,0,4.743C274.329,590.157,263.542,590.387,257.576,589.774z"/>
	<path fill="#2D5E8F" d="M379.134,548.082c-1.147-3.901-3.519-4.896-6.579-4.743c-2.295,0.076-4.514,0-6.961,0
		c-0.766-3.442-0.229-6.655-0.229-9.792c0-0.535,1.07-1.53,1.759-1.53c3.29-0.152,6.579-0.229,9.869,0
		c2.83,0.229,4.514,2.448,4.666,5.585C381.735,541.12,380.817,544.334,379.134,548.082z"/>
</g>
</svg>
