<?xml version="1.0" encoding="utf-8"?>
<!-- Generator: Adobe Illustrator 16.0.0, SVG Export Plug-In . SVG Version: 6.00 Build 0)  -->
<!DOCTYPE svg PUBLIC "-//W3C//DTD SVG 1.1//EN" "http://www.w3.org/Graphics/SVG/1.1/DTD/svg11.dtd">
<svg version="1.1" id="Layer_1" xmlns:sketch="http://www.bohemiancoding.com/sketch/ns"
	 xmlns="http://www.w3.org/2000/svg" xmlns:xlink="http://www.w3.org/1999/xlink" x="0px" y="0px" width="403.221px"
	 height="62.074px" viewBox="104.215 417.511 403.221 62.074" enable-background="new 104.215 417.511 403.221 62.074"
	 xml:space="preserve">
<title>delta</title>
<desc>Created with Sketch.</desc>
<g>
	<g>
		<path fill="#10293F" d="M143.208,455.63l36.021,17.311l-36.021-55.604l-36.021,55.43L143.208,455.63z M104.215,479.585h77.812
			l-38.818-16.437L104.215,479.585z"/>
		<path fill="#2D5E8F" d="M143.208,455.63v-38.119l-36.021,55.43L143.208,455.63z M104.215,479.585h38.818v-16.437L104.215,479.585z
			"/>
		<path fill="#10293F" d="M185.174,468.22c1.399,0,2.448,1.224,2.448,2.447c0,1.399-1.224,2.448-2.448,2.448
			c-1.399,0-2.448-1.224-2.448-2.448C182.551,469.269,183.775,468.22,185.174,468.22z M185.174,472.766
			c1.224,0,2.098-1.049,2.098-2.099c0-1.224-1.049-2.098-2.098-2.098c-1.224,0-2.099,1.049-2.099,2.098
			C182.9,472.066,183.95,472.766,185.174,472.766z M184.649,472.241h-0.35v-2.973h1.224c0.699,0,1.049,0.35,1.049,0.874
			s-0.35,0.875-0.7,0.875l0.875,1.398h-0.525l-0.874-1.398h-0.524L184.649,472.241L184.649,472.241z M184.649,470.492h0.525
			c0.35,0,0.874,0,0.874-0.524c0-0.35-0.35-0.524-0.699-0.524h-0.7V470.492L184.649,470.492z"/>
	</g>
	<g>
		<path fill="#2D5E8F" d="M212.276,472.766h17.486c18.01,0,28.677-9.268,28.677-24.83c0-15.387-10.667-24.654-28.677-24.654h-17.486
			V472.766L212.276,472.766z M223.292,432.024h6.295c11.715,0,17.486,5.77,17.486,16.086c0,10.317-5.945,16.087-17.486,16.087
			h-6.295V432.024L223.292,432.024z"/>
		<polygon fill="#2D5E8F" points="295.858,451.608 317.016,451.608 317.016,442.865 295.858,442.865 295.858,432.024 
			319.813,432.024 319.813,423.456 285.017,423.456 285.017,472.766 320.513,472.766 320.513,464.372 295.858,464.372 		"/>
		<polygon fill="#2D5E8F" points="383.462,464.372 362.129,464.372 362.129,423.456 351.113,423.456 351.113,472.766 
			383.462,472.766 		"/>
		<polygon fill="#2D5E8F" points="443.088,423.456 398.674,423.456 398.674,432.024 415.286,432.024 415.286,472.766 
			426.477,472.766 426.477,432.024 443.088,432.024 		"/>
		<path fill="#2D5E8F" d="M507.436,472.766h-11.541l-4.896-12.415h-20.108l-4.896,12.415h-10.666l20.458-49.484l0,0h11.191
			L507.436,472.766z M487.677,452.133l-6.819-17.661l-6.819,17.661H487.677z"/>
	</g>
</g>
</svg>
