<?xml version="1.0" encoding="utf-8"?>
<!-- Generator: Adobe Illustrator 16.0.0, SVG Export Plug-In . SVG Version: 6.00 Build 0)  -->
<!DOCTYPE svg PUBLIC "-//W3C//DTD SVG 1.1//EN" "http://www.w3.org/Graphics/SVG/1.1/DTD/svg11.dtd">
<svg version="1.1" id="Layer_1" xmlns:sketch="http://www.bohemiancoding.com/sketch/ns"
	 xmlns="http://www.w3.org/2000/svg" xmlns:xlink="http://www.w3.org/1999/xlink" x="0px" y="0px" width="350.589px"
	 height="94.072px" viewBox="130.793 401.252 350.589 94.072" enable-background="new 130.793 401.252 350.589 94.072"
	 xml:space="preserve">
<title>Netflix</title>
<desc>Created with Sketch.</desc>
<g>
	<path fill="#2D5E8F" d="M178.704,401.252c-4.721,0-9.967,0-14.688,0c0,20.108,0,33.048,0,53.156
		c-6.295-19.584-12.765-32.523-19.06-53.156c-5.42,0-8.743,0-14.164,0c0,31.299,0,62.773,0,94.072
		c4.721-0.699,9.967-1.398,14.688-1.923c0-19.584,0-31.824,0-51.408c6.645,19.409,10.667,30.774,17.136,49.135
		c5.071-0.524,10.841-1.398,15.912-1.748C178.704,460.004,178.704,430.628,178.704,401.252"/>
	<path fill="#2D5E8F" d="M233.959,401.252c-13.639,0-27.278,0-40.917,0c0,28.851-0.175,57.877-0.175,86.729
		c13.639-1.224,27.453-2.273,41.092-2.973c0-4.196,0-10.316,0-14.513c-8.918,0.524-17.486,1.049-26.403,1.748
		c0-7.693,0-14.163,0-22.031c6.47-0.176,13.289,0,19.934-0.176c0-4.196,0-10.316,0-14.688c-6.645,0.175-13.464,0.175-19.934,0.175
		c0-7.693,0-12.065,0-19.759c4.021,0,8.043,0,12.065,0c0.699,0,1.399,0,2.098,0c0.7,0,1.399,0,2.099,0c3.322,0,6.645,0,9.967,0
		C233.959,411.568,233.959,405.448,233.959,401.252"/>
	<path fill="#2D5E8F" d="M289.039,401.252c-15.038,0-30.6,0-45.463,0c0,4.196,0,10.316,0,14.513c0.699,0,1.224,0,1.923,0
		c1.923,0,4.021,0,5.945,0c1.924,0,4.022,0,5.945,0c0.524,0,1.049,0,1.574,0c0,23.256,0,44.589-0.175,68.02
		c4.896-0.175,9.967-0.35,14.863-0.524c0-23.256,0-44.414,0-67.67c5.071,0,10.316,0,15.388,0
		C289.039,411.568,289.039,405.448,289.039,401.252"/>
	<path fill="#2D5E8F" d="M339.747,401.252c-13.639,0-27.452,0-41.091,0c0,27.277,0,54.555,0,81.658c1.573,0,3.147,0,4.721,0
		c3.322,0,6.645,0,9.792,0c0-11.541,0-22.032,0-33.748c0.874,0,1.574,0,2.448,0c1.924,0,3.847,0,5.771,0c1.923,0,3.847,0,5.771,0
		c1.923,0,4.021,0,5.944,0c0-4.196,0-10.316,0-14.513c-1.748,0-3.672,0-5.595,0c-2.099,0-4.022,0-6.12,0c-2.099,0-4.022,0-6.12,0
		c-0.699,0-1.574,0-2.273,0c0-7.345,0-11.541,0-19.06c1.574,0,3.147,0,4.722,0c1.573,0,3.322,0,4.896,0c1.574,0,3.322,0,4.896,0
		c4.021,0,7.868,0,11.89,0C339.747,411.743,339.747,405.448,339.747,401.252"/>
	<path fill="#2D5E8F" d="M349.189,401.252c0,27.452-0.175,55.079,0,82.532c13.114,0.524,26.929,1.049,40.043,1.923
		c0-4.196,0-10.316,0-14.513c-8.219-0.524-16.962-1.049-25.18-1.398c0-23.606,0.175-44.938,0-68.544
		C359.156,401.252,354.086,401.252,349.189,401.252"/>
	<path fill="#2D5E8F" d="M401.297,401.252c0,28.501,0.175,56.828,0.175,85.33c4.896,0.35,9.792,0.699,14.514,1.224
		c0-28.852,0-57.703,0-86.554C411.264,401.252,406.193,401.252,401.297,401.252"/>
	<path fill="#2D5E8F" d="M428.75,401.252c5.945,14.338,11.365,28.851,17.311,44.063c-6.295,14.688-12.59,29.201-18.71,43.364
		c5.071,0.525,10.491,1.225,15.562,1.749c3.672-9.093,6.994-16.087,10.841-25.354c3.673,9.967,6.995,17.661,10.667,27.803
		c5.07,0.699,11.89,1.573,16.961,2.272c-6.295-16.611-13.114-33.922-19.234-49.659c6.295-14.688,12.59-28.852,19.06-44.238
		c-5.246,0-10.842,0-16.087,0c-4.021,9.616-6.819,15.736-10.491,24.829c-3.497-9.442-5.945-15.562-9.617-24.829
		C439.591,401.252,434.17,401.252,428.75,401.252"/>
</g>
</svg>
