<?xml version="1.0" encoding="utf-8"?>
<!-- Generator: Adobe Illustrator 16.0.0, SVG Export Plug-In . SVG Version: 6.00 Build 0)  -->
<!DOCTYPE svg PUBLIC "-//W3C//DTD SVG 1.1//EN" "http://www.w3.org/Graphics/SVG/1.1/DTD/svg11.dtd">
<svg version="1.1" id="Layer_1" xmlns="http://www.w3.org/2000/svg" xmlns:xlink="http://www.w3.org/1999/xlink" x="0px" y="0px"
	 width="300px" height="300px" viewBox="0 0 300 300" enable-background="new 0 0 300 300" xml:space="preserve">
<path fill="#142A40" d="M17.408,203.867c0-9.378,4.613-17.578,11.564-22.78c1.253-0.746,2.427-1.502,3.683-2.239
	c35.739-21.698,76.17-32.5,116.706-32.5c40.419,0,80.85,10.801,116.599,32.5c1.256,0.737,2.42,1.493,3.689,2.239
	c6.951,5.202,11.548,13.402,11.548,22.78c0,15.73-12.712,28.459-28.469,28.459c-5.938,0-11.463-1.845-16.066-4.942
	c-18.341-11.133-38.339-18.338-58.851-21.833v65.865c0,15.74-12.804,28.458-28.451,28.458c-15.753,0-28.547-12.718-28.547-28.458
	v-65.865c-20.512,3.495-40.52,10.7-58.861,21.833c-4.518,3.098-10.042,4.942-16.062,4.942
	C30.14,232.336,17.408,219.607,17.408,203.867z"/>
<path fill="#498AC9" d="M28.953,118.652c1.266,0.753,2.433,1.509,3.702,2.249c12.636,7.675,25.871,13.909,39.484,18.858
	c24.885-9.065,51.019-13.646,77.222-13.646c26.129,0,52.25,4.581,77.115,13.646c13.601-4.956,26.838-11.183,39.484-18.858
	c1.256-0.75,2.42-1.506,3.67-2.249c6.951-5.179,11.567-13.402,11.567-22.773c0-15.724-12.712-28.456-28.469-28.456
	c-6.023,0-11.548,1.832-16.066,4.945c-18.341,11.137-38.339,18.332-58.851,21.84V28.324c0-15.717-12.811-28.449-28.549-28.449
	c-15.655,0-28.449,12.732-28.449,28.449v65.884c-20.512-3.508-40.52-10.703-58.861-21.84c-4.6-3.114-10.131-4.945-16.062-4.945
	c-15.737,0-28.472,12.731-28.472,28.456C17.408,105.25,22.001,113.46,28.953,118.652z"/>
</svg>
