<?xml version="1.0" encoding="utf-8"?>
<!-- Generator: Adobe Illustrator 16.0.0, SVG Export Plug-In . SVG Version: 6.00 Build 0)  -->
<!DOCTYPE svg PUBLIC "-//W3C//DTD SVG 1.1//EN" "http://www.w3.org/Graphics/SVG/1.1/DTD/svg11.dtd">
<svg version="1.1" id="Layer_1" xmlns:sketch="http://www.bohemiancoding.com/sketch/ns"
	 xmlns="http://www.w3.org/2000/svg" xmlns:xlink="http://www.w3.org/1999/xlink" x="0px" y="0px" width="467.766px"
	 height="84.881px" viewBox="76.365 411.723 467.766 84.881" enable-background="new 76.365 411.723 467.766 84.881"
	 xml:space="preserve">
<title>NYU</title>
<desc>Created with Sketch.</desc>
<g>
	<rect x="76.365" y="450.78" fill="#2D5E8F" width="17.222" height="17.223"/>
	<rect x="125.879" y="450.78" fill="#2D5E8F" width="17.222" height="17.223"/>
	<rect x="177.545" y="450.78" fill="#2D5E8F" width="17.222" height="17.223"/>
	<rect x="228.289" y="450.78" fill="#2D5E8F" width="17.222" height="17.223"/>
	<path fill="#2D5E8F" d="M331.313,417.26c-1.845,0-3.075,0.308-4.306,0.922c-0.922,0.615-2.152,1.23-2.768,2.461
		c-0.615,0.923-1.23,1.846-1.537,2.768c-0.309,0.923-0.615,2.152-0.615,3.69c-0.308,2.152-0.308,4.613-0.308,7.381v43.67
		c0,3.998,0.308,7.073,0.614,9.226c0.309,1.846,0.923,3.69,1.846,4.613c1.538,2.152,3.998,3.384,7.073,3.384v1.229h-28.908v-1.229
		c1.845,0,3.075-0.309,4.306-0.923c1.23-0.615,2.152-1.23,2.768-2.461c0.923-1.229,1.537-2.768,1.846-4.921
		c0.307-1.846,0.614-4.921,0.614-8.918v-53.204l-23.373,71.656h-0.922l-23.373-70.733v51.974c0,3.998,0.308,7.073,0.615,8.918
		c0.308,1.846,0.923,3.69,1.845,4.921c0.922,1.229,1.845,1.846,2.768,2.46c1.23,0.615,2.46,0.923,4.306,0.923v1.23h-20.913v-1.23
		c1.846,0,3.076-0.308,4.306-0.923c1.23-0.614,2.153-1.229,2.768-2.46c0.922-1.229,1.538-2.768,1.845-4.921
		c0.308-1.846,0.615-4.921,0.615-8.918v-43.671c0-1.846,0-3.69,0-5.228c0-3.075-0.615-4.921-0.923-6.459
		c-0.615-1.846-1.845-3.383-3.075-3.998c-1.23-0.923-3.075-1.537-5.229-1.537v-1.23h19.683l19.683,63.354l20.297-63.354h18.76v1.539
		H331.313z"/>
	<path fill="#2D5E8F" d="M335.004,468.618c0-7.073,2.153-13.225,6.151-18.452c4.921-6.459,11.071-9.842,17.837-9.842
		c7.073,0,12.916,3.384,17.837,9.842c3.998,5.535,6.151,11.687,6.151,18.76c0,6.766-1.846,12.916-5.844,18.452
		c-4.92,6.459-10.764,9.841-18.145,9.841s-13.532-3.383-18.145-9.841c-1.846-2.46-3.383-5.536-4.307-8.611
		C335.619,475.384,335.004,472.001,335.004,468.618z M344.538,468.003c0,7.381,1.229,13.839,3.998,19.067
		c3.075,5.843,6.766,8.611,11.071,8.611c1.845,0,3.69-0.615,5.535-1.846c1.846-1.229,3.383-3.075,4.613-5.536
		c1.23-2.46,2.46-5.535,3.383-8.918c0.923-3.69,1.23-7.073,1.23-10.456s-0.308-7.073-1.23-10.764s-2.152-6.766-3.383-9.227
		c-2.768-4.921-6.15-7.38-10.456-7.38c-3.998,0-7.073,2.46-10.149,7.688C345.768,454.471,344.538,460.622,344.538,468.003z"/>
	<path fill="#2D5E8F" d="M402.355,453.241c1.537-2.152,2.768-3.384,3.998-4.306c2.768-1.845,5.843-2.768,9.533-2.768
		c5.229,0,9.841,1.846,13.532,5.536c4.92,4.613,7.072,11.071,7.072,19.375s-2.152,15.069-6.766,19.99
		c-3.998,4.305-8.919,6.458-15.377,6.458c-3.383,0-6.15-0.614-8.304-1.537l-2.768-1.23c-0.922-0.308-1.537-0.614-2.152-0.614
		c-1.846,0-3.383,1.537-4.613,4.921h-2.152v-68.273c0-4.306-0.615-7.381-1.846-9.227c-1.23-1.845-3.383-2.768-6.15-2.768v-1.229
		l15.684-2.46v38.132H402.355z M402.355,470.771c0,3.998,0.307,7.996,0.615,11.379c0.307,3.383,0.922,6.15,1.537,7.688
		c0.923,1.846,1.846,3.383,3.383,4.613c1.538,1.229,3.383,1.537,5.229,1.537c3.998,0,7.688-2.152,10.148-6.766
		c2.769-4.613,3.998-10.148,3.998-17.223c0-3.689-0.308-7.073-1.23-10.455c-0.923-3.384-2.152-6.151-3.69-8.304
		c-1.229-1.846-2.768-3.384-4.306-4.306c-1.537-0.923-3.075-1.537-4.92-1.537c-1.846,0-3.691,0.614-5.536,2.152
		c-1.845,1.229-3.075,3.075-3.69,5.228C402.97,458.162,402.355,463.39,402.355,470.771z"/>
	<path fill="#2D5E8F" d="M446.641,448.013l14.762-2.152v33.521v4.306c0,2.767,0,4.612,0.308,5.843
		c0.307,1.229,0.922,2.152,1.537,3.075c0.923,0.923,2.769,1.846,5.229,2.46v1.23h-22.758v-1.23c2.152-0.308,3.383-0.614,4.306-1.229
		s1.538-1.538,2.152-2.768c0.308-0.923,0.615-2.152,0.923-3.998c0-1.846,0.308-4.306,0.308-7.688v-14.454
		c0-3.998,0-6.766-0.308-8.304c-0.308-1.537-0.615-2.768-1.23-3.998c-0.615-1.229-1.23-1.846-2.152-2.46
		c-0.923-0.615-2.153-0.923-3.69-0.923v-1.23H446.641z M457.404,424.948c-1.23,0-2.46-0.615-3.383-1.538s-1.23-2.152-1.23-3.69
		s0.308-2.768,1.23-3.69s2.153-1.537,3.383-1.537c1.23,0,2.46,0.614,3.383,1.537s1.23,2.152,1.23,3.69s-0.308,2.768-1.23,3.69
		S458.635,424.948,457.404,424.948z"/>
	<path fill="#2D5E8F" d="M475.549,416.337l14.762-2.153v64.892v4.305c0,2.768,0,4.613,0.308,5.843
		c0.308,1.23,0.923,2.152,1.538,3.075c0.923,0.923,2.768,1.846,5.228,2.461v1.229h-22.758v-1.229
		c2.153-0.308,3.383-0.615,4.306-1.229c0.923-0.615,1.538-1.538,2.153-2.768c0.307-0.923,0.615-2.153,0.922-3.999
		c0-1.845,0.308-4.305,0.308-7.688v-45.824c0-3.998,0-6.766-0.308-8.303c-0.307-1.538-0.615-3.076-1.229-3.999
		c-0.615-1.229-1.23-1.845-2.153-2.46c-0.922-0.615-2.152-0.615-3.69-0.923v-1.229H475.549z"/>
	<path fill="#2D5E8F" d="M513.068,462.159c0,2.152-0.308,3.384-0.308,4.306c0,3.69,0.308,7.073,1.23,10.456s2.153,6.15,3.69,8.611
		c1.538,2.46,3.383,3.998,5.844,5.535c2.152,1.23,4.612,1.846,7.073,1.846c1.845,0,3.69-0.308,5.229-1.229
		c1.537-0.615,3.075-1.846,3.998-3.075c1.229-1.538,2.152-3.69,3.075-7.074l1.229,0.308c-0.922,4.921-2.768,8.611-5.843,11.072
		c-3.075,2.46-6.766,3.69-11.687,3.69c-4.306,0-7.688-0.923-10.764-2.461c-3.075-1.537-5.535-3.998-7.688-7.381
		c-2.769-4.612-4.306-10.455-4.306-17.222c0-9.227,2.768-16.607,8.304-21.836c3.998-3.69,8.61-5.843,13.839-5.843
		c2.768,0,5.229,0.615,7.688,1.846c2.46,1.229,4.306,2.768,5.844,5.228c2.46,3.384,3.69,7.688,3.69,12.917h-30.14V462.159z
		 M535.519,460.007c-0.307-3.998-0.922-7.381-1.845-9.534c-0.923-2.152-2.153-3.69-3.69-4.921c-1.538-1.229-3.075-1.846-4.921-1.846
		c-3.075,0-5.535,1.538-7.688,4.613c-2.152,3.075-3.383,6.766-3.998,11.379h22.143V460.007z"/>
	<path fill="#2D5E8F" d="M117.268,490.146h12.917v6.459H91.127v-6.459h12.917v-74.117c0,0-21.835,0-21.835,28.294h-4.306v-32.6
		h65.198v32.6h-4.306c0,0-0.922-28.294-21.835-28.294v74.117H117.268z"/>
</g>
</svg>
