<?xml version="1.0" encoding="utf-8"?>
<!-- Generator: Adobe Illustrator 16.0.0, SVG Export Plug-In . SVG Version: 6.00 Build 0)  -->
<!DOCTYPE svg PUBLIC "-//W3C//DTD SVG 1.1//EN" "http://www.w3.org/Graphics/SVG/1.1/DTD/svg11.dtd">
<svg version="1.1" id="Layer_1" xmlns:sketch="http://www.bohemiancoding.com/sketch/ns"
	 xmlns="http://www.w3.org/2000/svg" xmlns:xlink="http://www.w3.org/1999/xlink" x="0px" y="0px" width="375px" height="57.081px"
	 viewBox="140.5 314.5 375 57.081" enable-background="new 140.5 314.5 375 57.081" xml:space="preserve">
<title>Uber</title>
<desc>Created with Sketch.</desc>
<g>
	<path id="Fill-14" fill="#2D5E8F" d="M507.893,363.186c-1.539,1.835-3.374,0.918-3.994,0.297l-11.39-14.142h0.621
		c21.833-4.615,16.301-30.441-1.538-31.062h-37.216v50.736h5.856v-16.598c0-2.158,0.917-3.076,3.076-3.076h21.536l14.763,18.46
		c3.076,2.456,8.312,3.697,11.686,0L507.893,363.186L507.893,363.186z M463.309,343.809c-2.159,0-2.78,1.241-2.78,1.241v-20.915
		h31.36c13.224,0.62,13.521,19.08,0,19.674H463.309L463.309,343.809z"/>
	<path id="Fill-15" fill="#2D5E8F" d="M401.479,318.279h-46.742v50.736h48.28v-5.855h-42.451v-14.466
		c0-2.159,0.918-3.077,3.076-3.077h25.207v-5.532h-25.827c-2.159,0-2.78,1.241-2.78,1.241v-17.218h40.914v-5.829"/>
	<path id="Fill-16" fill="#2D5E8F" d="M296.633,342.865c10.146-7.368,5.855-23.074-7.071-24.613h-38.754v50.737h38.754
		C302.165,367.477,308.318,351.5,296.633,342.865L296.633,342.865z M256.637,323.811h32.305c10.443,1.241,10.146,15.06,0,16.301
		h-29.525c-2.158,0-2.779,1.241-2.779,1.241V323.811L256.637,323.811z M288.941,363.186h-32.305V348.72
		c0-2.158,0.918-3.076,3.076-3.076h29.229C300.006,347.183,299.709,362.242,288.941,363.186L288.941,363.186z"/>
	<path id="Fill-17" fill="#2D5E8F" d="M176.672,370.257c4.318,0,22.13-2.78,22.13-19.674v-32.305h-5.83v31.062
		c0,14.763-16.597,14.142-16.597,14.142h-5.236c0,0-16.597,0.621-16.597-14.142v-22.13c0-4.614-3.698-8.608-9.527-8.608v5.855
		c2.456,0,3.374,2.159,3.374,3.994v22.454c0,16.921,17.839,19.674,22.13,19.674h6.153"/>
</g>
</svg>
